Coordinates
version=1
nRows=6
nColumns=36
inDegrees=yes

Units are S.I. units (second, meters, Newtons, ...)
If the header above contains a line with 'inDegrees', this indicates whether rotational values are in degrees (yes) or radians (no).

endheader
time	pelvis_tilt	pelvis_list	pelvis_rotation	pelvis_tx	pelvis_ty	pelvis_tz	hip_flexion_r	hip_adduction_r	hip_rotation_r	knee_angle_r	knee_angle_r_beta	ankle_angle_r	subtalar_angle_r	mtp_angle_r	hip_flexion_l	hip_adduction_l	hip_rotation_l	knee_angle_l	knee_angle_l_beta	ankle_angle_l	subtalar_angle_l	mtp_angle_l	lumbar_extension	lumbar_bending	lumbar_rotation	arm_flex_r	arm_add_r	arm_rot_r	elbow_flex_r	pro_sup_r	arm_flex_l	arm_add_l	arm_rot_l	elbow_flex_l	pro_sup_l
     44.91666670	     -3.49058230	     -1.84215976	     -0.74317975	      0.92107292	      0.81588120	      0.73451816	      4.53673360	      5.02501494	     -1.64083589	     12.04852785	      0.21028648	     12.56665198	     -6.70730557	     -7.49999987	     28.23614008	     -2.53636451	     -3.24136959	     51.54007443	      0.89954400	      6.91227154	     -9.34246882	     -7.49999987	     -0.53824966	      2.36110659	      1.10619695	      4.06670102	    -15.17834185	      1.08656575	     17.27113952	     89.19783794	      5.28262268	    -11.67580851	     10.96926276	     11.38028038	     92.01871901
     44.93333330	     -3.75250040	     -1.53771395	     -1.55172998	      0.91751708	      0.81426604	      0.73486968	      3.98903705	      4.54040332	     -1.73506181	     12.68876685	      0.22146076	     13.39036260	     -5.76390614	     -7.49999987	     29.76111449	     -2.14954255	     -3.88006396	     46.92170934	      0.81893832	      7.39946953	     -8.83220051	     -7.49999987	     -0.91182778	      2.17446040	      2.67473597	      5.28149310	    -15.70870178	      1.27596219	     18.83568889	     87.83617748	      4.66950739	    -11.38728671	     10.59270540	     11.39237212	     90.64296759
     44.95000000	     -4.20241448	     -1.30754482	     -2.25053987	      0.91473815	      0.81217853	      0.73613117	      3.28820740	      4.18695240	     -1.68924813	     12.83327055	      0.22398282	     14.32383882	     -4.58552447	     -7.49999987	     31.28099330	     -1.91282493	     -4.27272389	     41.68431352	      0.72752852	      7.62996787	     -8.12892141	     -7.49999987	     -0.99031047	      2.01367022	      3.98821688	      6.43119097	    -16.33741783	      1.65399203	     20.74002904	     86.79996941	      3.94864390	    -11.11690138	     10.40470272	     11.66740718	     89.52438589
     44.96666670	     -4.70384790	     -1.36271188	     -2.90869239	      0.91348771	      0.80997468	      0.73714202	      2.13157922	      4.17301697	     -1.62615146	     12.38074189	      0.21608471	     14.93872985	     -2.90994214	     -7.49999987	     32.63151840	     -2.02146670	     -4.28793064	     35.70945825	      0.62324762	      7.77606012	     -6.96795443	     -7.49999987	     -0.90276632	      2.19016314	      5.60070389	      7.32067369	    -17.43167626	      3.34144284	     23.07297038	     85.45978781	      3.69257165	    -10.57492978	     10.26718838	     11.09122654	     88.23516678
     44.98333330	     -5.25425435	     -1.44823116	     -3.48994856	      0.91345995	      0.80649050	      0.73758164	      0.50322028	      4.29332895	     -1.14547162	     11.21388476	      0.19571921	     15.00754155	     -1.93234100	     -7.49999987	     33.66106517	     -2.22657635	     -4.06968064	     28.85372141	      0.50359244	      7.62865618	     -5.56340270	     -7.49999987	     -0.64839181	      2.35750322	      6.73431890	      8.47008235	    -18.13352873	      3.65437128	     25.08312282	     83.98985603	      2.84085857	    -10.28712090	     10.08088855	     11.28401137	     86.68122105
     45.00000000	     -5.52865049	     -1.75996823	     -3.87717236	      0.91356567	      0.79970962	      0.73714510	     -1.68765727	      4.60544337	     -0.95978750	      9.69514964	      0.16921228	     15.54510396	     -0.06831593	     -7.49999987	     34.21744219	     -2.66792136	     -3.62522207	     21.95096475	      0.38311661	      8.28995382	     -2.84563783	     -7.49999987	     -0.57833166	      2.80861163	      7.48604371	      9.92987828	    -18.80336944	      4.17104155	     26.39345749	     84.85075429	      2.20947800	     -9.81103702	      9.59511301	     10.63770367	     87.47559746
